# xmcd
#
# Track frame offsets: 
#        150
#        1858
#        27054
#        43918
#        61449
#        86806
#        105200
#        126372
#        143133
#        164547
#        192969
#        210227
#        245615
#        247077
#
# Disc length: 3717 seconds
#
# Revision: 0
# Processed by: cddbd v1.5.2PL0 Copyright (c) Steve Scherf et al.
# Submitted via: ExactAudioCopy v0.95b4
#
DISCID=bd0e830e
DTITLE=Burt, Kevin "B.F." - 2004 Iowa City Jazz Festival
DYEAR=2004
DGENRE=Blues
TTITLE0=Introduction Of Band Members
TTITLE1=Crazy 'Bout You Baby
TTITLE2=I Been Watchin' You
TTITLE3=No Blues
TTITLE4=Come On In This House
TTITLE5=You Shoulda' Never Left Me Alone
TTITLE6=Livin' In The Past
TTITLE7=Can't Get You Out Of My Mind
TTITLE8=Let The Chips Fall Where They May
TTITLE9=Stone Crazy
TTITLE10=Doin' The Same
TTITLE11=Let's Get It On
TTITLE12=Introduction Of Guest Guitarist Tony Brown
TTITLE13=Use Me Up
EXTD=
EXTT0=
EXTT1=
EXTT2=
EXTT3=
EXTT4=
EXTT5=
EXTT6=
EXTT7=
EXTT8=
EXTT9=
EXTT10=
EXTT11=
EXTT12=
EXTT13=
PLAYORDER=
